<?xml version="1.0" encoding="utf-8"?>
<!-- Generator: Adobe Illustrator 16.0.0, SVG Export Plug-In . SVG Version: 6.00 Build 0)  -->
<!DOCTYPE svg PUBLIC "-//W3C//DTD SVG 1.1//EN" "http://www.w3.org/Graphics/SVG/1.1/DTD/svg11.dtd">
<svg version="1.1" id="Layer_1" xmlns="http://www.w3.org/2000/svg" xmlns:xlink="http://www.w3.org/1999/xlink" x="0px" y="0px"
	 width="612px" height="792px" viewBox="0 0 612 792" enable-background="new 0 0 612 792" xml:space="preserve">
<path fill="#FFFFFF" stroke="#000000" d="M47.185,397.828c-1.009-142.94,114.048-259.634,256.988-260.644
	c23.307-0.165,46.529,2.82,69.038,8.873l-11.509,42.799c-114.403-30.763-232.083,37.04-262.846,151.442
	c-5.016,18.654-7.49,37.9-7.353,57.216L47.185,397.828z"/>
<path fill="#FFFFFF" stroke="#000000" d="M181.282,232.531l56.338-7.754l-20.695,15.923l68.399,119.254l8.801-6.772l-7.533,17.32
	l-18.238,2.51l8.243-6.342l-97.273-97.037l-21.312,16.398L181.282,232.531z"/>
<path fill="#FFFFFF" stroke="#000000" d="M279.003,396.39c-0.215-14.91,11.697-27.172,26.607-27.387
	c2.596-0.037,5.185,0.3,7.685,1.001l-0.517,1.841c-13.34-3.743-27.189,4.036-30.933,17.376c-0.652,2.323-0.965,4.728-0.93,7.14
	L279.003,396.39z"/>
</svg>
